<svg width="280" height="280" viewBox="0 0 280 280" fill="none" xmlns="http://www.w3.org/2000/svg">
<g clip-path="url(#clip0)">
<g opacity="0.405" filter="url(#filter0_f)">
<path d="M266.912 140.379C266.912 211.507 209.835 269.167 139.427 269.167C69.0193 269.167 11.9424 211.507 11.9424 140.379C11.9424 69.252 69.0193 11.592 139.427 11.592C209.835 11.592 266.912 69.252 266.912 140.379Z" fill="#211F46" fill-opacity="0.996078"/>
<path d="M266.912 140.379C266.912 211.507 209.835 269.167 139.427 269.167C69.0193 269.167 11.9424 211.507 11.9424 140.379C11.9424 69.252 69.0193 11.592 139.427 11.592C209.835 11.592 266.912 69.252 266.912 140.379Z" stroke="#0A0B1B" stroke-width="0.78948"/>
</g>
<path d="M266.912 140.379C266.912 211.507 209.835 269.167 139.427 269.167C69.0194 269.167 11.9424 211.507 11.9424 140.379C11.9424 69.252 69.0194 11.592 139.427 11.592C209.835 11.592 266.912 69.252 266.912 140.379Z" fill="url(#paint0_linear)" stroke="url(#paint1_linear)" stroke-width="1.25045"/>
<path fill-rule="evenodd" clip-rule="evenodd" d="M95.6097 230.842C95.6097 230.842 106.404 231.605 120.291 230.381C125.915 229.886 147.266 227.788 163.23 224.288C163.23 224.288 182.693 220.122 193.106 216.285C204.001 212.27 209.929 208.862 212.598 204.034C212.482 203.044 213.42 199.536 208.395 197.429C195.55 192.041 180.652 193.015 151.174 192.39C118.483 191.267 107.608 185.795 101.815 181.388C96.26 176.917 99.0534 164.548 122.856 153.653C134.846 147.851 181.847 137.145 181.847 137.145C166.018 129.32 136.501 115.566 130.434 112.595C125.112 109.99 116.596 106.068 114.75 101.322C112.657 96.7663 119.693 92.8417 123.623 91.7178C136.281 88.0669 154.149 85.7977 170.411 85.5429C178.585 85.4149 179.912 84.889 179.912 84.889C191.191 83.018 198.616 75.3013 195.522 63.0802C192.745 50.6058 178.098 43.2759 164.179 45.8134C151.071 48.203 119.479 57.3799 119.479 57.3799C158.53 57.0419 165.066 57.6937 167.985 61.775C169.709 64.1853 167.201 67.4902 156.787 69.1911C145.448 71.043 121.879 73.273 121.879 73.273C99.2685 74.6158 83.3417 74.7057 78.5648 84.8193C75.4441 91.4266 81.8928 97.268 84.7192 100.924C96.6634 114.207 113.916 121.371 125.021 126.647C129.199 128.632 141.459 132.38 141.459 132.38C105.432 130.399 79.4436 141.462 64.1988 154.199C46.9565 170.147 54.584 189.157 89.9087 200.862C110.773 207.775 121.12 211.027 152.242 208.224C170.574 207.236 173.463 207.824 173.646 209.328C173.903 211.446 153.285 216.706 147.656 218.33C133.336 222.461 95.7976 230.801 95.6097 230.842Z" fill="white"/>
</g>
<defs>
<filter id="filter0_f" x="9.92235" y="9.57177" width="259.01" height="261.615" filterUnits="userSpaceOnUse" color-interpolation-filters="sRGB">
<feFlood flood-opacity="0" result="BackgroundImageFix"/>
<feBlend mode="normal" in="SourceGraphic" in2="BackgroundImageFix" result="shape"/>
<feGaussianBlur stdDeviation="0.812749" result="effect1_foregroundBlur"/>
</filter>
<linearGradient id="paint0_linear" x1="76.043" y1="63.4585" x2="236.185" y2="281.303" gradientUnits="userSpaceOnUse">
<stop stop-color="#8381C5"/>
<stop offset="0.566394" stop-color="#7E55B3" stop-opacity="0.996078"/>
<stop offset="1" stop-color="#A52ECB" stop-opacity="0.992157"/>
</linearGradient>
<linearGradient id="paint1_linear" x1="243.242" y1="215.313" x2="95.4416" y2="36.9" gradientUnits="userSpaceOnUse">
<stop stop-color="#411F5D"/>
<stop offset="1" stop-color="#5B2A85"/>
</linearGradient>
<clipPath id="clip0">
<rect width="280" height="280" fill="white"/>
</clipPath>
</defs>
</svg>
