<svg width="280" height="280" viewBox="0 0 280 280" fill="none" xmlns="http://www.w3.org/2000/svg">
<path d="M280 0H0V280H280V0Z" fill="#F7DF1E"/>
<path d="M73.6221 233.989L95.0499 221.021C99.1837 228.35 102.944 234.551 111.964 234.551C120.61 234.551 126.062 231.169 126.062 218.014V128.547H152.374V218.386C152.374 245.639 136.399 258.044 113.092 258.044C92.0426 258.044 79.8243 247.142 73.6221 233.986" fill="black"/>
<path d="M166.667 231.169L188.091 218.764C193.731 227.975 201.061 234.741 214.03 234.741C224.933 234.741 231.885 229.29 231.885 221.771C231.885 212.75 224.743 209.554 212.714 204.293L206.137 201.472C187.153 193.391 174.559 183.242 174.559 161.815C174.559 142.08 189.595 127.043 213.09 127.043C229.818 127.043 241.847 132.87 250.492 148.095L230.005 161.251C225.494 153.17 220.608 149.975 213.09 149.975C205.384 149.975 200.497 154.861 200.497 161.251C200.497 169.145 205.384 172.341 216.66 177.228L223.238 180.047C245.605 189.633 258.198 199.406 258.198 221.395C258.198 245.079 239.591 258.046 214.594 258.046C190.16 258.046 174.372 246.394 166.667 231.169Z" fill="black"/>
</svg>
